<svg id="Camada_1" data-name="Camada 1" xmlns="http://www.w3.org/2000/svg" xmlns:xlink="http://www.w3.org/1999/xlink" viewBox="0 0 201 200"><defs><style>.cls-1{fill:url(#Gradiente_sem_nome_82);}.cls-2{fill:#fff;}</style><linearGradient id="Gradiente_sem_nome_82" x1="49.32" y1="40.35" x2="179.23" y2="191.75" gradientUnits="userSpaceOnUse"><stop offset="0" stop-color="#2a79ff"/><stop offset="0.51" stop-color="#b37fff"/><stop offset="1" stop-color="#00d0bf"/></linearGradient></defs><title>logo</title><circle class="cls-1" cx="100.5" cy="100" r="97.5"/><path class="cls-2" d="M82.38,37.1c3.19,0,5,1.84,5,5V84.06c0,3.19,1.84,5,5,5h16.1c3.36,0,5-1.85,5-5V42.13c0-3.19,1.85-5,5-5H137.4c3.36,0,5,1.67,5,5V149.48c0,3.19-1.68,5-5,5H118.62c-3.19,0-5-1.84-5-5V123c0-3.35-1.67-5-5-5H92.45c-3.19,0-5,1.68-5,5v26.5c0,3.19-1.68,5-5,5H63.6c-3.19,0-5-1.84-5-5V42.13c0-3.36,1.67-5,5-5Z"/></svg>